{
    "asset" : {
        "generator" : "Khronos glTF Blender I/O v0.9.36",
        "version" : "2.0"
    },
    "scene" : 0,
    "scenes" : [
        {
            "name" : "Scene",
            "nodes" : [
                0
            ]
        }
    ],
    "nodes" : [
        {
            "mesh" : 0,
            "name" : "Cube.001",
            "rotation" : [
                0.7071068286895752,
                0,
                0,
                0.7071067094802856
            ],
            "translation" : [
                0,
                2.353454113006592,
                0
            ]
        }
    ],
    "materials" : [
        {
            "name" : "Main",
            "normalTexture" : {
                "index" : 0,
                "texCoord" : 0
            },
            "pbrMetallicRoughness" : {
                "baseColorFactor" : [
                    1,
                    1,
                    1,
                    1
                ],
                "metallicFactor" : 0,
                "roughnessFactor" : 0.5
            }
        },
        {
            "name" : "Border",
            "normalTexture" : {
                "index" : 1,
                "texCoord" : 0
            },
            "pbrMetallicRoughness" : {
                "baseColorFactor" : [
                    0.6399999856948853,
                    0.6265115141868591,
                    0.5870475769042969,
                    1
                ],
                "metallicFactor" : 0,
                "roughnessFactor" : 0.5
            }
        },
        {
            "name" : "Heart",
            "normalTexture" : {
                "index" : 2,
                "texCoord" : 0
            },
            "pbrMetallicRoughness" : {
                "baseColorTexture" : {
                    "index" : 3,
                    "texCoord" : 0
                },
                "metallicFactor" : 0,
                "roughnessFactor" : 0.5
            }
        }
    ],
    "meshes" : [
        {
            "name" : "Cube.001",
            "primitives" : [
                {
                    "attributes" : {
                        "POSITION" : 0,
                        "NORMAL" : 1,
                        "TEXCOORD_0" : 2
                    },
                    "indices" : 3,
                    "material" : 0
                },
                {
                    "attributes" : {
                        "POSITION" : 4,
                        "NORMAL" : 5,
                        "TEXCOORD_0" : 6
                    },
                    "indices" : 7,
                    "material" : 1
                },
                {
                    "attributes" : {
                        "POSITION" : 8,
                        "NORMAL" : 9,
                        "TEXCOORD_0" : 10
                    },
                    "indices" : 11,
                    "material" : 0
                },
                {
                    "attributes" : {
                        "POSITION" : 12,
                        "NORMAL" : 13,
                        "TEXCOORD_0" : 14
                    },
                    "indices" : 15,
                    "material" : 1
                },
                {
                    "attributes" : {
                        "POSITION" : 16,
                        "NORMAL" : 17,
                        "TEXCOORD_0" : 18
                    },
                    "indices" : 19,
                    "material" : 2
                }
            ]
        }
    ],
    "textures" : [
        {
            "source" : 0
        },
        {
            "source" : 0
        },
        {
            "source" : 0
        },
        {
            "source" : 1
        }
    ],
    "images" : [
        {
            "bufferView" : 4,
            "mimeType" : "image/jpeg",
            "name" : "normal"
        },
        {
            "bufferView" : 21,
            "mimeType" : "image/png",
            "name" : "diffuse"
        }
    ],
    "accessors" : [
        {
            "bufferView" : 0,
            "componentType" : 5126,
            "count" : 1368,
            "max" : [
                2.004591941833496,
                2.004591941833496,
                2.004591941833496
            ],
            "min" : [
                -2.004591941833496,
                -2.004591941833496,
                -2.004591941833496
            ],
            "type" : "VEC3"
        },
        {
            "bufferView" : 1,
            "componentType" : 5126,
            "count" : 1368,
            "type" : "VEC3"
        },
        {
            "bufferView" : 2,
            "componentType" : 5126,
            "count" : 1368,
            "type" : "VEC2"
        },
        {
            "bufferView" : 3,
            "componentType" : 5123,
            "count" : 1620,
            "type" : "SCALAR"
        },
        {
            "bufferView" : 5,
            "componentType" : 5126,
            "count" : 2728,
            "max" : [
                2.027592897415161,
                2.027592897415161,
                2.027592897415161
            ],
            "min" : [
                -2.027592897415161,
                -2.027592897415161,
                -2.027592897415161
            ],
            "type" : "VEC3"
        },
        {
            "bufferView" : 6,
            "componentType" : 5126,
            "count" : 2728,
            "type" : "VEC3"
        },
        {
            "bufferView" : 7,
            "componentType" : 5126,
            "count" : 2728,
            "type" : "VEC2"
        },
        {
            "bufferView" : 8,
            "componentType" : 5123,
            "count" : 13824,
            "type" : "SCALAR"
        },
        {
            "bufferView" : 9,
            "componentType" : 5126,
            "count" : 360,
            "max" : [
                2.0028820037841797,
                2.0028820037841797,
                2.0028820037841797
            ],
            "min" : [
                -2.0028820037841797,
                -2.0028820037841797,
                -2.0028820037841797
            ],
            "type" : "VEC3"
        },
        {
            "bufferView" : 10,
            "componentType" : 5126,
            "count" : 360,
            "type" : "VEC3"
        },
        {
            "bufferView" : 11,
            "componentType" : 5126,
            "count" : 360,
            "type" : "VEC2"
        },
        {
            "bufferView" : 12,
            "componentType" : 5123,
            "count" : 816,
            "type" : "SCALAR"
        },
        {
            "bufferView" : 13,
            "componentType" : 5126,
            "count" : 5576,
            "max" : [
                2.3225600719451904,
                2.323745012283325,
                2.3225879669189453
            ],
            "min" : [
                -2.3225600719451904,
                -2.323745012283325,
                -2.3225879669189453
            ],
            "type" : "VEC3"
        },
        {
            "bufferView" : 14,
            "componentType" : 5126,
            "count" : 5576,
            "type" : "VEC3"
        },
        {
            "bufferView" : 15,
            "componentType" : 5126,
            "count" : 5576,
            "type" : "VEC2"
        },
        {
            "bufferView" : 16,
            "componentType" : 5123,
            "count" : 23280,
            "type" : "SCALAR"
        },
        {
            "bufferView" : 17,
            "componentType" : 5126,
            "count" : 1938,
            "max" : [
                2.026094913482666,
                2.026094913482666,
                2.0260961055755615
            ],
            "min" : [
                -2.026094913482666,
                -2.026094913482666,
                -2.0260961055755615
            ],
            "type" : "VEC3"
        },
        {
            "bufferView" : 18,
            "componentType" : 5126,
            "count" : 1938,
            "type" : "VEC3"
        },
        {
            "bufferView" : 19,
            "componentType" : 5126,
            "count" : 1938,
            "type" : "VEC2"
        },
        {
            "bufferView" : 20,
            "componentType" : 5123,
            "count" : 9792,
            "type" : "SCALAR"
        }
    ],
    "bufferViews" : [
        {
            "buffer" : 0,
            "byteLength" : 16416,
            "byteOffset" : 0
        },
        {
            "buffer" : 0,
            "byteLength" : 16416,
            "byteOffset" : 16416
        },
        {
            "buffer" : 0,
            "byteLength" : 10944,
            "byteOffset" : 32832
        },
        {
            "buffer" : 0,
            "byteLength" : 3240,
            "byteOffset" : 43776
        },
        {
            "buffer" : 0,
            "byteLength" : 136346,
            "byteOffset" : 47016
        },
        {
            "buffer" : 0,
            "byteLength" : 32736,
            "byteOffset" : 183364
        },
        {
            "buffer" : 0,
            "byteLength" : 32736,
            "byteOffset" : 216100
        },
        {
            "buffer" : 0,
            "byteLength" : 21824,
            "byteOffset" : 248836
        },
        {
            "buffer" : 0,
            "byteLength" : 27648,
            "byteOffset" : 270660
        },
        {
            "buffer" : 0,
            "byteLength" : 4320,
            "byteOffset" : 298308
        },
        {
            "buffer" : 0,
            "byteLength" : 4320,
            "byteOffset" : 302628
        },
        {
            "buffer" : 0,
            "byteLength" : 2880,
            "byteOffset" : 306948
        },
        {
            "buffer" : 0,
            "byteLength" : 1632,
            "byteOffset" : 309828
        },
        {
            "buffer" : 0,
            "byteLength" : 66912,
            "byteOffset" : 311460
        },
        {
            "buffer" : 0,
            "byteLength" : 66912,
            "byteOffset" : 378372
        },
        {
            "buffer" : 0,
            "byteLength" : 44608,
            "byteOffset" : 445284
        },
        {
            "buffer" : 0,
            "byteLength" : 46560,
            "byteOffset" : 489892
        },
        {
            "buffer" : 0,
            "byteLength" : 23256,
            "byteOffset" : 536452
        },
        {
            "buffer" : 0,
            "byteLength" : 23256,
            "byteOffset" : 559708
        },
        {
            "buffer" : 0,
            "byteLength" : 15504,
            "byteOffset" : 582964
        },
        {
            "buffer" : 0,
            "byteLength" : 19584,
            "byteOffset" : 598468
        },
        {
            "buffer" : 0,
            "byteLength" : 145203,
            "byteOffset" : 618052
        }
    ],
    "buffers" : [
        {
            "byteLength" : 763256,
            "uri" : "data:application/octet-stream;base64,"
        }
    ]
}
